<svg width="219" height="64" viewBox="0 0 219 64" fill="none" xmlns="http://www.w3.org/2000/svg">
<g clip-path="url(#clip0_428_114075)">
<path d="M211.247 50.9948C211.257 49.7242 211.514 48.7961 211.993 48.2203C212.473 47.6445 213.201 47.3566 214.161 47.3566C215.122 47.3566 215.818 47.6332 216.252 48.1769C216.687 48.7205 216.896 49.6711 216.896 50.9948H211.257H211.247ZM214.187 55.8297C213.11 55.8297 212.35 55.5418 211.924 54.9644C211.498 54.387 211.281 53.4927 211.281 52.2976H218.446L218.532 51.0592C218.532 49.3092 218.168 48.0289 217.443 47.207C216.717 46.3851 215.627 45.9798 214.163 45.9798C211.141 45.9798 209.628 47.8826 209.624 51.6881C209.624 53.5988 209.946 55.0078 210.597 55.9037C211.249 56.7996 212.358 57.2596 213.919 57.2596C215.335 57.2402 216.747 57.1225 218.147 56.9073L218.104 55.6206L217.475 55.685C216.362 55.7766 215.273 55.8297 214.187 55.8297ZM200.784 47.8472C201.169 47.4724 201.799 47.2923 202.685 47.2923C203.572 47.2923 204.202 47.4724 204.575 47.8359C204.948 48.1994 205.141 48.801 205.141 49.6711C205.141 50.5413 204.95 51.1444 204.575 51.5079C204.201 51.8714 203.572 52.0596 202.692 52.0596C201.812 52.0596 201.175 51.8778 200.791 51.516C200.406 51.1541 200.215 50.5509 200.215 49.6904C200.215 48.8299 200.406 48.2203 200.791 47.8472H200.784ZM200.302 57.7292C200.571 57.3756 200.897 57.0691 201.267 56.8221L203.617 56.9283C204.673 56.9283 205.386 57.0344 205.741 57.2596C206.097 57.4848 206.287 57.9528 206.287 58.7072C206.287 59.4615 206.041 59.9939 205.539 60.3075C205.037 60.6212 204.215 60.7901 203.062 60.7901C201.909 60.7901 201.117 60.6421 200.691 60.3429C200.265 60.0437 200.048 59.5098 200.048 58.7522C200.034 58.4048 200.12 58.0607 200.294 57.7598M207.929 58.7104C207.929 57.451 207.63 56.6066 207.022 56.1691C206.414 55.7316 205.413 55.5257 204.02 55.5257C202.628 55.5257 201.799 55.4726 201.521 55.3649C201.243 55.2571 201.104 54.9805 201.104 54.5333C201.104 54.3403 201.233 53.935 201.5 53.2949C201.853 53.3527 202.21 53.3812 202.568 53.3801C204.016 53.3801 205.077 53.1131 205.751 52.5759C206.425 52.0387 206.755 51.0817 206.755 49.7258C206.755 48.7607 206.52 48.0289 206.039 47.5593L208.101 47.6027V46.2146L204.884 46.2999L204.562 46.2371C203.93 46.0865 203.282 46.0147 202.632 46.0232C199.93 46.0232 198.578 47.2612 198.574 49.737C198.574 51.4018 199.141 52.4906 200.294 53.0134L200.101 53.3656C199.739 54.0267 199.557 54.4915 199.557 54.7312C199.557 55.4566 199.76 55.9584 200.165 56.2254C199.546 56.6838 199.097 57.1004 198.841 57.4735C198.564 57.9039 198.426 58.4094 198.446 58.9211C198.446 60.1692 198.788 61.0233 199.481 61.4945C200.175 61.9658 201.383 62.199 203.123 62.199C206.34 62.199 207.948 61.0501 207.948 58.7522M188.906 48.2975L189.323 48.1061C189.706 47.939 190.103 47.8035 190.508 47.7008C190.985 47.5692 191.477 47.5011 191.972 47.4981C192.937 47.4981 193.58 47.7748 193.873 48.3297C194.166 48.8846 194.322 49.9204 194.322 51.4259V57.0778H195.93V51.3471C195.93 49.351 195.684 47.9694 195.182 47.1845C194.68 46.3996 193.709 46.0104 192.268 46.0104C191.2 46.0104 190.079 46.3417 188.903 46.9931V46.2355H187.295V57.0778H188.917V48.2734L188.906 48.2975ZM177.808 52.5775C178.098 52.2558 178.567 52.0757 179.219 52.0113L182.436 51.7138V55.2893L181.934 55.4598C181 55.7887 180.018 55.9583 179.029 55.9616C177.929 55.9616 177.385 55.2989 177.385 53.9656C177.385 53.3576 177.523 52.8976 177.823 52.5775M183.237 46.8902C182.682 46.324 181.789 46.0457 180.557 46.0457C179.135 46.0679 177.718 46.2295 176.327 46.5283L176.391 47.7667L177.065 47.7024C178.263 47.5591 179.468 47.4876 180.674 47.4885C180.913 47.4768 181.151 47.5136 181.375 47.5965C181.599 47.6794 181.804 47.8068 181.977 47.971C182.299 48.2927 182.46 48.8138 182.46 49.5617V50.4512L179.053 50.7809C177.909 50.8983 177.067 51.2087 176.533 51.6993C175.999 52.1899 175.728 52.986 175.728 54.0363C175.728 55.0866 175.984 55.9037 176.507 56.4699C177.03 57.036 177.794 57.3127 178.783 57.3127C180.132 57.3026 181.464 57.0083 182.691 56.449C183.267 57.0248 184.139 57.3127 185.276 57.3127L185.339 56.0259C184.549 55.9198 184.121 55.6094 184.079 55.0609V49.5119C184.079 48.3152 183.801 47.4306 183.246 46.8644M166.384 48.1238L166.8 47.9742C167.644 47.6436 168.542 47.4734 169.448 47.4724C170.356 47.4724 171.029 47.7507 171.328 48.3056C171.627 48.8605 171.777 49.8947 171.777 51.4001V57.0875H173.4V51.368C173.4 49.3736 173.153 47.9903 172.652 47.207C172.15 46.4237 171.178 46.0329 169.737 46.0329C168.575 46.0557 167.433 46.3365 166.393 46.8548V41.5181H164.759V57.0987H166.393V48.1351L166.384 48.1238ZM155.874 47.2697C155.179 48.1029 154.827 49.5424 154.827 51.6125C154.827 53.6825 155.149 55.1333 155.792 56.0082C156.436 56.8832 157.608 57.3111 159.295 57.3111C160.308 57.2804 161.318 57.1804 162.318 57.0119L162.253 55.6673L159.691 55.8587C158.387 55.8587 157.533 55.5498 157.118 54.9306C156.703 54.3114 156.498 53.2016 156.498 51.6221C156.498 50.0426 156.723 48.9538 157.161 48.3667C157.598 47.7796 158.448 47.4917 159.67 47.4917C160.527 47.5131 161.383 47.5775 162.234 47.6847L162.298 46.361L161.774 46.2967C160.969 46.1593 160.155 46.0739 159.339 46.0409C157.716 46.0409 156.563 46.4575 155.868 47.289M140.683 51.0704C140.694 49.7998 140.95 48.8717 141.431 48.2943C141.912 47.7169 142.637 47.4306 143.599 47.4306C144.561 47.4306 145.254 47.7088 145.69 48.2525C146.126 48.7961 146.333 49.7467 146.333 51.0704H140.683ZM143.631 55.8957C142.552 55.8957 141.794 55.6078 141.366 55.0319C140.939 54.4561 140.723 53.5586 140.723 52.3636H147.888L147.975 51.1251C147.975 49.3752 147.612 48.0949 146.885 47.273C146.158 46.4511 145.071 46.0457 143.607 46.0457C140.585 46.0457 139.072 47.949 139.068 51.7556C139.068 53.6664 139.39 55.0738 140.033 55.9713C140.676 56.8687 141.802 57.3255 143.354 57.3255C144.775 57.3087 146.194 57.1937 147.599 56.9813L147.557 55.6946L146.927 55.7589C145.812 55.8506 144.712 55.9037 143.634 55.9037L143.631 55.8957ZM129.504 48.1463L129.921 47.9967C130.765 47.6661 131.663 47.4959 132.57 47.4949C133.477 47.4949 134.151 47.7716 134.45 48.3265C134.749 48.8814 134.893 49.9172 134.893 51.4162V57.11H136.517V51.3792C136.517 49.3832 136.271 48.0016 135.769 47.2167C135.267 46.4318 134.296 46.0441 132.853 46.0441C131.692 46.0672 130.551 46.3473 129.511 46.8644V41.5293H127.893V57.11H129.516V48.1463H129.504ZM125.885 46.2564H122.435V42.9383H120.827V46.2564H119.291V47.6654H120.829V53.3753C120.829 54.9226 121.042 55.968 121.48 56.5229C121.917 57.0778 122.698 57.3448 123.83 57.3448C124.571 57.3173 125.309 57.2388 126.04 57.11L125.934 55.7654L124.004 55.894C123.32 55.894 122.894 55.701 122.717 55.307C122.54 54.9129 122.45 54.1007 122.45 52.8525V47.6654H125.885V46.2564ZM105.459 48.2943L105.875 48.1029C106.259 47.9361 106.655 47.8005 107.061 47.6976C107.537 47.566 108.03 47.4979 108.524 47.4949C109.489 47.4949 110.133 47.7716 110.425 48.3265C110.718 48.8814 110.874 49.9172 110.874 51.4227V57.11H112.483V51.3792C112.483 49.3832 112.236 48.0016 111.735 47.2167C111.233 46.4318 110.261 46.0441 108.819 46.0441C107.751 46.0441 106.63 46.3658 105.455 47.0253V46.2693H103.847V57.11H105.459V48.2943ZM100.707 41.9137H99.0684V43.802H100.703L100.707 41.9137ZM100.707 46.2564H99.0684V57.11H100.703L100.707 46.2564ZM89.4485 48.3474C89.8763 47.7491 90.6564 47.4499 91.7984 47.4499C92.9403 47.4499 93.7092 47.7491 94.137 48.3474C94.5648 48.9457 94.7675 50.0443 94.7675 51.6334C94.7675 53.2225 94.5745 54.3339 94.2013 54.9628C93.8282 55.5917 93.0272 55.9021 91.7984 55.9021C90.5695 55.9021 89.7685 55.5804 89.3857 54.9531C89.0029 54.3258 88.8099 53.2032 88.8099 51.6237C88.8099 50.0443 89.019 48.9457 89.4453 48.349L89.4485 48.3474ZM88.136 55.9777C88.7965 56.8741 90.0136 57.3223 91.7871 57.3223C93.5564 57.3223 94.7675 56.8736 95.4302 55.9777C96.0928 55.0818 96.4338 53.6407 96.4338 51.6543C96.4338 49.6679 96.0816 48.2396 95.3755 47.355C94.6694 46.4704 93.4743 46.0313 91.7984 46.0313C90.1224 46.0313 88.9145 46.4688 88.21 47.355C87.5055 48.2412 87.142 49.6695 87.142 51.6543C87.142 53.6391 87.4701 55.0818 88.1328 55.9793L88.136 55.9777ZM81.815 58.6042C82.7977 58.4868 83.4588 58.1876 83.7901 57.718C84.1954 57.1534 84.3997 56.2704 84.3997 55.0496L84.3771 42.0955H82.7173V54.8019C82.7173 55.8678 82.5677 56.5294 82.2685 56.7867C81.9694 57.0425 81.3035 57.1711 80.2612 57.1711V58.6653C80.7745 58.6705 81.2878 58.6491 81.7989 58.601" fill="white"/>
<path d="M65.3946 34.0112H67.1494V57.1096H65.3946V34.0112ZM59.5271 45.5532V49.8074C59.5265 50.5479 59.4082 51.2836 59.1765 51.9868C58.9495 52.6842 58.5992 53.3352 58.1423 53.9089C57.6603 54.5146 57.0441 55.0001 56.3424 55.327C55.6406 55.6538 54.8726 55.8131 54.0987 55.7923C53.4093 55.7925 52.7255 55.6683 52.0802 55.4256C51.4164 55.1733 50.8245 54.7625 50.3559 54.229C49.812 53.595 49.4031 52.8567 49.1545 52.0592C48.8553 51.1682 48.7025 50.0583 48.7025 48.762C48.6819 47.7134 48.8285 46.6682 49.1368 45.6658C49.3827 44.8772 49.7798 44.144 50.3061 43.5073C50.7631 42.9647 51.3365 42.532 51.9837 42.2415C52.6158 41.9634 53.2987 41.8194 53.9893 41.8185C55.1155 41.8109 56.2137 42.1687 57.1193 42.8382C58.0981 43.5687 58.9161 44.4929 59.5223 45.5532H59.5271ZM59.5657 43.5298C59.3488 43.1813 59.1047 42.8505 58.8355 42.5406C58.0445 41.6349 57.0303 40.9518 55.8937 40.5591C55.228 40.3354 54.5291 40.2266 53.8269 40.2374C52.9125 40.2311 52.0076 40.4232 51.1746 40.8003C50.3336 41.1933 49.5878 41.764 48.9888 42.4731C48.3272 43.266 47.8204 44.176 47.4946 45.1559C47.1133 46.317 46.9279 47.5335 46.9461 48.7555C46.9461 50.2787 47.1263 51.5976 47.4769 52.6784C47.776 53.6675 48.2796 54.5826 48.955 55.3645C49.5662 56.0518 50.3358 56.5796 51.1971 56.9021C52.0936 57.2294 53.0415 57.3929 53.9958 57.3847C55.297 57.3847 56.4406 57.063 57.3895 56.4196C58.2573 55.8261 58.9865 55.0519 59.5271 54.1501V56.2411C59.5479 57.2075 59.4176 58.1713 59.1411 59.0976C58.9292 59.7955 58.5669 60.4384 58.0795 60.9811C57.627 61.4544 57.0637 61.8076 56.4406 62.0088C55.7374 62.2307 55.0033 62.3393 54.266 62.3305C53.2849 62.3396 52.3071 62.2151 51.3596 61.9606C50.5737 61.752 49.8127 61.4586 49.0901 61.0856L48.9872 61.0293L48.5191 62.4769L48.5915 62.5155C49.363 62.9115 50.171 63.232 51.0041 63.4725C52.0425 63.7791 53.1206 63.9297 54.2033 63.9196C56.4132 63.9196 58.1632 63.2763 59.4097 62.0217C60.6562 60.7671 61.2867 58.829 61.2867 56.2781V40.5156H59.9405L59.5641 43.5346L59.5657 43.5298ZM42.7096 48.6478V50.3849C42.707 51.0604 42.5714 51.7288 42.3107 52.3519C41.7457 53.7146 40.6678 54.8007 39.3094 55.3758C38.5061 55.7113 37.6417 55.8756 36.7713 55.8583C36.2982 55.8598 35.8274 55.7927 35.3736 55.6588C34.952 55.5367 34.56 55.3292 34.222 55.0492C33.8891 54.7676 33.6255 54.4132 33.4515 54.0134C33.2545 53.5422 33.1591 53.0347 33.1717 52.524C33.1717 51.181 33.6076 50.1918 34.4697 49.5806C35.3318 48.9695 36.8003 48.6462 38.8043 48.6462L42.7096 48.6478ZM38.3974 40.2261C37.3218 40.2152 36.2502 40.3598 35.216 40.6556C34.3923 40.8864 33.5991 41.2147 32.8532 41.6335L32.7873 41.6737L33.2199 43.0183L33.3245 42.9604C34.0208 42.5845 34.7587 42.2913 35.5232 42.0871C36.4621 41.848 37.4286 41.7345 38.3974 41.7493C39.7887 41.7493 40.8695 42.071 41.6062 42.7143C42.3428 43.3577 42.7079 44.4836 42.7079 46.0727V47.1294H38.8027C36.4191 47.1294 34.5871 47.583 33.3534 48.4741C32.1198 49.3651 31.4828 50.7371 31.4828 52.5289C31.4694 53.2422 31.6047 53.9504 31.8801 54.6085C32.134 55.1929 32.5128 55.7144 32.9899 56.1365C33.479 56.5615 34.0507 56.8808 34.6691 57.0742C35.3369 57.286 36.0338 57.3913 36.7343 57.3863C38.1449 57.3863 39.385 57.0726 40.4127 56.4534C41.3735 55.8706 42.1744 55.0581 42.7433 54.089L43.1261 57.1128H44.4273V46.0679C44.4273 44.2825 43.9223 42.8511 42.9267 41.8024C41.9311 40.7537 40.4047 40.2261 38.3974 40.2261Z" fill="white"/>
<path d="M6.17792 12.7276C5.60642 13.1901 5.24079 13.8597 5.16066 14.5905C5.08053 15.3213 5.29238 16.0542 5.75009 16.6296L20.7083 35.3177C20.9364 35.602 21.2183 35.8386 21.5379 36.014C21.8574 36.1893 22.2084 36.3 22.5707 36.3398C22.933 36.3795 23.2996 36.3475 23.6496 36.2455C23.9996 36.1436 24.326 35.9737 24.6103 35.7456C24.8946 35.5174 25.1312 35.2356 25.3066 34.916C25.4819 34.5965 25.5926 34.2455 25.6324 33.8832C25.6721 33.5208 25.6401 33.1542 25.5381 32.8043C25.4362 32.4543 25.2663 32.1279 25.0382 31.8436L10.0799 13.1554C9.61984 12.583 8.95145 12.2164 8.22142 12.1362C7.4914 12.056 6.75936 12.2687 6.18596 12.7276" fill="white"/>
<path d="M0.0386403 43.8564C-0.0811059 44.5818 0.0910343 45.325 0.517463 45.9238C0.943891 46.5226 1.58995 46.9283 2.31454 47.0524L19.6339 49.9475C19.9936 50.0074 20.3616 49.9958 20.7168 49.9135C21.0721 49.8312 21.4076 49.6797 21.7043 49.4677C22.001 49.2557 22.253 48.9873 22.446 48.6779C22.639 48.3685 22.7691 48.0241 22.829 47.6644C22.8889 47.3047 22.8773 46.9367 22.795 46.5814C22.7127 46.2262 22.5612 45.8906 22.3492 45.594C22.1372 45.2973 21.8688 45.0452 21.5594 44.8523C21.25 44.6593 20.9056 44.5291 20.5459 44.4693L3.22651 41.5741C3.07662 41.5491 2.9249 41.5367 2.77294 41.5371C2.11704 41.539 1.4829 41.7726 0.982561 42.1967C0.482223 42.6208 0.147891 43.2081 0.0386403 43.8548" fill="white"/>
<path d="M28.2129 0.0174922C27.4833 0.105769 26.8182 0.478944 26.3626 1.05564C25.9071 1.63233 25.698 2.36577 25.781 3.09599L28.5394 26.9005C28.6248 27.6301 28.9964 28.296 29.5727 28.7516C30.149 29.2073 30.8826 29.4153 31.6123 29.33C32.342 29.2447 33.0079 28.873 33.4635 28.2967C33.9191 27.7204 34.1271 26.9868 34.0418 26.2571L31.2834 2.45263C31.2033 1.7777 30.8791 1.15537 30.3719 0.702963C29.8646 0.250553 29.2094 -0.000693481 28.5298 -0.00341797C28.4223 -0.00315975 28.3149 0.002746 28.2081 0.0142747" fill="white"/>
<path d="M44.7523 8.01471L38.1996 26.0032C38.0747 26.345 38.0183 26.7082 38.0337 27.0718C38.0491 27.4355 38.136 27.7925 38.2894 28.1226C38.4428 28.4527 38.6597 28.7493 38.9277 28.9955C39.1957 29.2418 39.5096 29.4328 39.8515 29.5578C40.1933 29.6827 40.5565 29.7391 40.9201 29.7237C41.2838 29.7083 41.6408 29.6214 41.9709 29.468C42.301 29.3146 42.5976 29.0977 42.8438 28.8297C43.0901 28.5617 43.2811 28.2478 43.4061 27.9059L49.9571 9.91907C50.2074 9.2281 50.1742 8.46617 49.8647 7.7996C49.5553 7.13303 48.9947 6.61596 48.3053 6.36127C48.003 6.24978 47.6834 6.19261 47.3612 6.19238C46.7922 6.19318 46.2372 6.36827 45.7707 6.69408C45.3043 7.01989 44.9489 7.48079 44.7523 8.01471Z" fill="white"/>
<path d="M55.3244 21.0863L47.7649 29.45C47.2705 29.9941 47.0125 30.7123 47.0476 31.4466C47.0827 32.181 47.4082 32.8713 47.9523 33.3657C48.4964 33.8601 49.2146 34.1181 49.9489 34.083C50.6832 34.0478 51.3735 33.7224 51.8679 33.1783L59.4355 24.8146C59.9267 24.2675 60.182 23.5486 60.1459 22.8142C60.1097 22.0798 59.7851 21.3895 59.2425 20.8933C58.6978 20.401 57.9801 20.1449 57.2468 20.1811C56.5135 20.2173 55.8245 20.5428 55.3308 21.0863" fill="white"/>
</g>
<defs>
<clipPath id="clip0_428_114075">
<rect width="218.53" height="63.9086" fill="white"/>
</clipPath>
</defs>
</svg>
