<svg xmlns="http://www.w3.org/2000/svg" viewBox="0 0 256 186.67" aria-hidden="true" focusable="false">
    <rect width="256" height="186.67" fill="none">
</rect>
    <ellipse cx="77.33" cy="164.33" rx="76.67" ry="11.33" fill="#00199e">
</ellipse>
    <path d="M81,100c-12,0-22.87-56.6-40.07-51.46-19.8,5.86-23.26,67.8-16.6,87.46,7.67,22.54,16.6,32.2,56.8,32.2,31.27,0,50.67-11.2,56.47-32.2C142.89,116.85,112.23,100,81,100Z" transform="translate(-0.29 -3.85)" fill="#00dfed">
</path>
    <path d="M67,37.85l-3.67,7.67L72.63,48l.4-5.93s4.93,1.8,6.4,1.67c3.26-.27,4.46-8.74,4.86-13.67.6-7.07-4.73-9.33-9-9.4C61.23,20.52,67,37.85,67,37.85Z" transform="translate(-0.29 -3.85)" fill="#dadada">
</path>
    <path d="M65.29,20.25c-7.66,10.27,1.2,17.53,1.74,17.6s3.4-2.33,3.8-3-1.54-3,.06-4.67c1.27-1.4,3.07-1.53,3.6.8L83,23.65C78.49,16.05,68.83,15.52,65.29,20.25Z" transform="translate(-0.29 -3.85)" fill="#2b2e31">
</path>
    <path d="M63.89,15.25c-2.86-1.2-5.33.53-6.66,3.67s-.87,5.73,2,6.93,5.6.07,6.93-3.07S66.76,16.38,63.89,15.25Z" transform="translate(-0.29 -3.85)" fill="#2b2e31">
</path>
    <path d="M93.69,116.65c-3.33,2.73-36.4,5.6-35.93,4.4,3.87-8.6,17.47-8.47,17.47-8.47S99,92.78,105,95.85c4.4,2.27,26.8,19.4,36.26,26.6l-4.06,5.33c-5.27-2.13-14.74-6-20.8-10.4-11.14-8.13-11.67-7.6-14-7.73C101.23,109.52,98.23,113.05,93.69,116.65Z" transform="translate(-0.29 -3.85)" fill="#001cb0">
</path>
    <polygon points="159.33 116.47 148.6 121.87 145.13 129.87 150.33 134.47 162 118.6 159.33 116.47" fill="#d6d9e0">
</polygon>
    <polygon points="140.07 125.73 143.53 120.6 148 123.13 145.4 129.27 140.07 125.73" fill="#fff">
</polygon>
    <polygon points="140.87 118.87 137 123.93 140.07 125.73 143.53 120.6 140.87 118.87" fill="#dadada">
</polygon>
    <path d="M51.43,110.38c7.06-6.2,19.26-.2,19.26-.2s29.6-6.26,32.94-.26c2.33,4.2,13.2,30.06,18.86,40.53L117,153.38c-3.87-4.13-10.27-12.33-13.53-18.46-5.47-10.54-5.27-12.47-7.6-15.67s-37.2,18.27-42.4,4.33C52.63,121.45,49.43,112.18,51.43,110.38Z" transform="translate(-0.29 -3.85)" fill="#001cb0">
</path>
    <polygon points="138.47 154.73 126.53 153 119.2 157.6 120.73 164.33 139.47 158 138.47 154.73" fill="#d6d9e0">
</polygon>
    <polygon points="117.6 151.2 123.47 148.93 125.93 153.4 120.53 156.6 117.6 151.2" fill="#fff">
</polygon>
    <polygon points="122.13 146.6 116.6 149.53 117.6 151.2 123.47 148.93 122.13 146.6" fill="#dadada">
</polygon>
    <path d="M63.49,93.45c4.14,9.27,29.4,10.07,29.4,10.07L97,99.38,72.63,90.72c6.4-25.54,4.93-39.54-.94-40.07C61,49.65,59.36,84.18,63.49,93.45Z" transform="translate(-0.29 -3.85)" fill="#dee1e6">
</path>
    <path d="M95.69,101.65a3.25,3.25,0,0,0,.87,2.13l11.67-.33a3.14,3.14,0,0,0,.46-1.4c.07-2.27-2.8-4.13-6.4-4.27S95.69,99.45,95.69,101.65Z" transform="translate(-0.29 -3.85)" fill="#dadada">
</path>
    <path d="M54.56,57.25c-14.87-.87-8.87-19.67-8.87-19.67l29.6,7.27S69.49,58.12,54.56,57.25Z" transform="translate(-0.29 -3.85)" fill="#dee1e6">
</path>
    <path d="M75.36,44.85c6.53,6,5.07,43.67,8.67,62.4l-34.74,13c.14-36.67,2.87-55.93,6.8-67.07,2.74-8,6.94-9.06,11.2-9.33C70.83,43.72,72.56,43.72,75.36,44.85Z" transform="translate(-0.29 -3.85)" fill="#dee1e6">
</path>
    <path d="M57,95.52c4.13,9.26,29.4,9.33,29.4,9.33l-.27-6.13L66,92c6.4-25.53,4.93-40.06-.94-40.06C58.43,51.92,52.83,86.25,57,95.52Z" transform="translate(-0.29 -3.85)" fill="#dee1e6">
</path>
    <path d="M89.09,103.05a3.25,3.25,0,0,0,.87,2.13l11.67-.33a3.14,3.14,0,0,0,.46-1.4c.07-2.27-2.8-4.13-6.33-4.27S89.16,100.78,89.09,103.05Z" transform="translate(-0.29 -3.85)" fill="#dadada">
</path>
    <polygon points="85.87 101.4 90.73 101.27 91.13 97.73 85.93 96.4 85.87 101.4" fill="#dadada">
</polygon>
    <polygon points="130.47 80.8 117.13 102.13 79.8 102.13 79.8 100.07 99.4 100.07 111.47 80.8 130.47 80.8" fill="#fff">
</polygon>
    <path d="M59,150.85l41.6-20-2.67-6.13s-6.8,1-9.6-.2c-6.33-2.67-14.86-6.54-19.46-9.6C59.23,108.58,31,100.58,31,100.58Z" transform="translate(-0.29 -3.85)" fill="#00dfed">
</path>
    <path d="M53.29,137.92c11.2-2,20.8,6.2,20.8,6.2s-13.06-3.94-20.53-.8S35,150.65,35,150.65,42.09,139.92,53.29,137.92Z" transform="translate(-0.29 -3.85)" fill="#2caa18">
</path>
    <path d="M17.16,130.12a68.91,68.91,0,0,0-15-16.67s14.93,6.07,19.93,12.4,10.14,27.6,10.14,27.6S23.09,139.85,17.16,130.12Z" transform="translate(-0.29 -3.85)" fill="#2caa18">
</path>
    <path d="M30,118.85a151.5,151.5,0,0,1,7.6-24.07s.8,15.8.66,26.27-4.6,32.33-4.6,32.33S26.69,133.12,30,118.85Z" transform="translate(-0.29 -3.85)" fill="#2caa18">
</path>
    <path d="M13.49,141.92l6.8.26s10.47,9.4,10.34,15.94C24.16,151.72,13.49,141.92,13.49,141.92Z" transform="translate(-0.29 -3.85)" fill="#2caa18">
</path>
    <path d="M23,168.18H40.49a19.7,19.7,0,0,0,10.94-17.6v-1.8H12.09v1.8A19.65,19.65,0,0,0,23,168.18Z" transform="translate(-0.29 -3.85)" fill="#d6d9e0">
</path>
    <path d="M13.49,141.92l6.8.26s-9.53,9-18.13,18A25.68,25.68,0,0,1,13.49,141.92Z" transform="translate(-0.29 -3.85)" fill="#56bb46">
</path>
</svg>
