<svg xmlns="http://www.w3.org/2000/svg" xmlns:xlink="http://www.w3.org/1999/xlink" viewBox="0 0 384 280" aria-hidden="true" focusable="false">
    <defs>
        <mask id="a" x="0" y="223.49" width="292" height="24" maskUnits="userSpaceOnUse">
            <polygon points="292 223.49 0 223.49 0 247.49 292 247.49 292 223.49" fill="#fff" fill-rule="evenodd">
</polygon>
        </mask>
        <mask id="b" x="130.69" y="14.91" width="61.33" height="105.26" maskUnits="userSpaceOnUse">
            <polygon points="192.02 14.91 130.69 14.91 130.69 120.17 192.02 120.17 192.02 14.91" fill="#fff" fill-rule="evenodd">
</polygon>
        </mask>
        <mask id="c" x="269.44" y="53.89" width="70.9" height="48.24" maskUnits="userSpaceOnUse">
            <polygon points="340.33 53.89 269.44 53.89 269.44 102.13 340.33 102.13 340.33 53.89" fill="#fff" fill-rule="evenodd">
</polygon>
        </mask>
    </defs>
    <rect width="384" height="280" fill="none">
</rect>
    <g mask="url(#a)">
        <path d="M0,235.49c0,6.62,65.37,12,146,12s146-5.38,146-12-65.37-12-146-12-146,5.37-146,12" fill="#00199e" fill-rule="evenodd">
</path>
    </g>
    <path d="M211.65,218.07c11.42-44.78,7.22-117.34,0-138.12-7.85-22.62-18.33-34.47-18.77-35l-3.2,2.87,1.6-1.43-1.6,1.43c.11.12,10.43,11.84,18,33.73,7,20.19,10.11,96.56-4.08,136.49Z" fill="#56bb46" fill-rule="evenodd">
</path>
    <path d="M238.58,221.57c.2-5.93.56-102.14,1.2-108.3,2.24-21.69,7.94-43,22.18-50.88,12.13-6.74,23.59,3.51,23.71,3.58l4-8.76c-.6-.34-14.82-8.35-29.05-.45-13,7.24-21.31,25.08-24.72,53.15-.8,6.6-3.67,103.79-3.93,111.52Z" fill="#2caa18" fill-rule="evenodd">
</path>
    <path d="M221.59,228.36l8.35.47c-7.74-54.19,5.6-92.45,12.22-96.6,4.88-3.06,9.86-1.51,13.19.33,7,3.91,12,11.9,12,16.62h2.35c0-7-4.13-16.32-12.06-20.71-6.25-3.46-12.62-3.53-17.93-.2-13.14,8.22-20.54,55.08-18.09,100.09" fill="#2caa18" fill-rule="evenodd">
</path>
    <path d="M229,78.49c1.26-2.28,2.48-4.66,3.66-7.16C247.3,40.41,212.24,8.91,192,38.12v0c-1.64,13.29-9.66,27.94-17.34,42.51-9.12,17.29-19.46,31.1-34,39.52A67,67,0,0,0,167,123.24c2-6.73-2.09-24,3.92-23.31,6.21.74-.62,18.42-2.58,23.19a67.78,67.78,0,0,0,21-5.62c.83-8-13.7-28.2-6-30.19,8.41-2.18,7.51,27.52,7.44,29.52,6.65-3.17,10.79-5.37,17-11.28.74-18.2-21.54-33.21-12.57-37.67,9.93-4.95,16.58,33.89,16.58,33.89v0a100.87,100.87,0,0,0,15.88-21c-8.67-16-31.85-26.18-23.79-32.66S225,69.28,229,78.49" fill="#56bb46" fill-rule="evenodd">
</path>
    <g mask="url(#b)">
        <path d="M177.7,27.61c-3.75-5.24-15.2,1.19-13,7.3s21,3.79,13-7.3m-3,53c-9.12,17.29-19.46,31.1-34,39.52l-.57-.19c-.51-6.22-2.64-14.34-5.13-25.59,7.73-3.43,21.56-6.83,19.08-12.12s-14.55,3.64-20.6,8.56a106.7,106.7,0,0,1-2.1-13.16C143.63,69.14,160.86,70.12,158,64s-19.9,4.31-26.88,10c-.47-7.11-.86-11.13.9-18.4,15.08-6.73,38.48.26,37.44-9.22-1.06-9.67-28.74.74-36.12,3.7a56.06,56.06,0,0,1,4.33-10.88c16-30.27,54.1-33.94,54.36-1l0,0v0c-1.65,13.28-9.66,27.94-17.34,42.51" fill="#2caa18" fill-rule="evenodd">
</path>
    </g>
    <path d="M192.61,210.35c0,7.17,3.6,13.68,9.48,18.52,0,0,10.26,4.77,25.49,4.77s25.49-4.77,25.49-4.77c5.88-4.84,9.49-11.35,9.49-18.52,0-8.77-5.41-16.57-13.79-21.51V137.72H206.39v51.12c-8.38,4.94-13.78,12.74-13.78,21.51" fill="#00dfed" fill-rule="evenodd">
</path>
    <path d="M308.35,141c-.63-1.76-1.34-3.55-2.11-5.37-9.68-22.57-43.27-18.68-37.17,6.07h0c6.37,7.2,10.44,18.47,14.63,29.52,5,13.12,7.48,25.24,5.12,37A48.26,48.26,0,0,0,303,195.56c-2.66-4.28-13.92-10.28-10.67-13.18s9.6,9.08,11.24,12.4a48.51,48.51,0,0,0,7-14c-3.89-4.22-21.67-6-19.07-11.13,2.82-5.55,18.36,9,19.41,10,1.45-5.08,2.23-8.36,2-14.51-9.43-9-28.09-4.19-26.23-11.13,2.06-7.7,26.11,7.18,26.11,7.18h0A72.34,72.34,0,0,0,309,142.75c-12.74-3-29.22,4.69-28.87-2.72s21.39-1.29,28.25.93" fill="#2caa18" fill-rule="evenodd">
</path>
    <path d="M283.71,171.19c5,13.12,7.48,25.24,5.12,37l-.37.22c-3.59-2.68-9-5.39-16.2-9.4,1.83-5.78,6.57-14.84,2.55-16s-5,9.56-5.18,15.15a76,76,0,0,1-8.08-5.12c1.22-10.63,9.93-19.43,5.24-20.81s-7.14,12.75-7.4,19.21c-4-3.13-6.39-4.82-9.46-9.22,3.54-11.31,18.42-20.57,12.83-24.52s-13.26,15.81-15.17,21.18a40.26,40.26,0,0,1-3.8-7.5c-8.69-23,7.45-45.22,25.28-29.71v0h0c6.37,7.2,10.44,18.47,14.63,29.52" fill="#56bb46" fill-rule="evenodd">
</path>
    <g mask="url(#c)">
        <path d="M316.53,71.69c11.11,8.56,19.62,17.55,23.8,28.82l-.19.38c-4.47-.4-10.47.12-18.73.51-1.48-5.89-2.2-16.08-6.24-15S316,97.16,318.71,102a75,75,0,0,1-9.57-.12c-4.54-9.68-1.75-21.74-6.46-20.45s.62,14.6,3.79,20.23c-5.08-.54-8-.75-12.89-2.88-2.93-11.49,4.87-27.18-2-27.6s-3,20.41-1.79,26a39.48,39.48,0,0,1-7.16-4.39c-19.46-15-17.42-42.39,5.9-38.57h0c9.2,2.78,18.59,10.23,28,17.44" fill="#2caa18" fill-rule="evenodd">
</path>
    </g>
    <path d="M197.07,187s19.23-7.4,32.12-12.74,35.45,1.44,35.45,1.44S248,161.49,228.72,164.94s-31.65,22-31.65,22" fill="#2caa18" fill-rule="evenodd">
</path>
    <path d="M192.21,194.72s-8.81-36.64-17.44-47.61S140.4,125.7,140.4,125.7s15.64,12,25.91,28.74,25.9,40.28,25.9,40.28" fill="#2caa18" fill-rule="evenodd">
</path>
    <path d="M194.78,193.72s7.77-37.85,8-55.84-1.17-45.29-1.17-45.29a256.47,256.47,0,0,0-13.17,41.49c-5.72,24.62,6.35,59.64,6.35,59.64" fill="#2caa18" fill-rule="evenodd">
</path>
    <path d="M189.6,199.79c.22-11.21-17.91-27.46-17.91-27.46l-11.75-.52s18.39,17,29.66,28" fill="#2caa18" fill-rule="evenodd">
</path>
    <path d="M223.33,207.67A31.53,31.53,0,0,1,205.65,236,42.41,42.41,0,0,1,178,236a31.54,31.54,0,0,1-17.69-28.33c0-6.73,5.85-26.9,5.85-26.9h51.35s5.84,20.17,5.84,26.9" fill="#99f2f8" fill-rule="evenodd">
</path>
    <path d="M48.23,167.11c1.76,6.41,8,14.72,15,22.44.09-.59.18-1.18.28-1.76,1.06-6.63,1.74-13.24,2.19-19.68l-3-4.31q2-4.06,3.64-7.8,1.57-3.51,2.94-6.75c.82-2,1.6-3.84,2.29-5.66l.07-.13a.28.28,0,0,1,0-.13c.44-1.41,4.53-13.83,3.85-22.61C75,113.4,72.85,109.28,72,107.84a.56.56,0,0,0,0-.08c-11.18,8.44-26.33,49.75-23.69,59.35" fill="#fad291" fill-rule="evenodd">
</path>
    <path d="M64,189.64a281.09,281.09,0,0,0,23.37,22.27l6-5.89L66.27,168.16c-.38,6.45-1,13.07-2,19.71-.09.58-.18,1.17-.26,1.77" fill="#d17875" fill-rule="evenodd">
</path>
    <path d="M105.08,84.91s1.6-8.88-1.24-14.36c-3.57-6.9-13.88-10-22.47-3.36-6.07,4.69-2.71,18.59-2.71,18.59l17.92-7.61Z" fill="#eff0f4" fill-rule="evenodd">
</path>
    <polygon points="85.15 110.67 91.55 116.75 97.95 110.67 96.83 96.88 86.28 96.88 85.15 110.67" fill="#fad291" fill-rule="evenodd">
</polygon>
    <path d="M79.69,81.72c0-6.58,5.31-10.88,11.86-10.88s11.86,4.3,11.86,10.88c0,0,.52,8.39.52,8.79,0,6.25-7.65,14.17-12.38,14.17-5.46,0-12.38-9.43-12.38-14.17,0-.4.52-8.79.52-8.79" fill="#fad291" fill-rule="evenodd">
</path>
    <path d="M102.83,83.35a2,2,0,0,1,2.69.58c1.17,1.56.39,7.42-2.54,7.42s-.15-8-.15-8" fill="#fad291" fill-rule="evenodd">
</path>
    <path d="M80.18,83.35a2,2,0,0,0-2.69.58c-1.17,1.56-.39,7.42,2.54,7.42s.15-8,.15-8" fill="#fad291" fill-rule="evenodd">
</path>
    <path d="M82.28,57.14c-.19,5.66,3.24,9.32,8.39,9.49s7.63-3.45,7.81-9.12-2.38-10-7.54-10.18-8.47,4.14-8.66,9.81" fill="#eff0f4" fill-rule="evenodd">
</path>
    <path d="M139.32,204.37c-2,1-16.81-4.83-18.48-6.82l-59.16-1.37c-1.62,1.94-16,7.69-18,6.72l48,29.9Z" fill="#6b6d77" fill-rule="evenodd">
</path>
    <polygon points="104.1 248.17 108.77 238.16 102.83 234.78 97.93 245.3 104.1 248.17" fill="#fad291" fill-rule="evenodd">
</polygon>
    <path d="M45.23,199.88c15.06,3.6,40.56,25.9,58,34.4L98,245.56c-30.16-9.62-63.57-27.39-67.26-31.18s-3-7.35-1.49-11.18,9-5.84,16-3.32" fill="#6b6d77" fill-rule="evenodd">
</path>
    <polygon points="122.62 245.16 115.16 253.63 104.1 248.17 108.77 238.16 122.62 245.16" fill="#fad291" fill-rule="evenodd">
</polygon>
    <polygon points="134.83 246.92 126.83 264.06 122.51 262.04 112.2 252.25 116.98 241.99 130.5 244.91 134.83 246.92" fill="#fff" fill-rule="evenodd">
</polygon>
    <polygon points="78.71 249.2 74.04 239.19 79.98 235.81 84.88 246.32 78.71 249.2" fill="#fad291" fill-rule="evenodd">
</polygon>
    <path d="M137.58,200.91c-15.06,3.59-40.56,25.9-58,34.4l5.26,11.28C115,237,148.37,219.2,152.06,215.41s3-7.35,1.49-11.18-9-5.85-16-3.32" fill="#6b6d77" fill-rule="evenodd">
</path>
    <polygon points="60.19 246.19 67.65 254.66 78.71 249.2 74.04 239.19 60.19 246.19" fill="#fad291" fill-rule="evenodd">
</polygon>
    <polygon points="47.98 247.95 55.98 265.09 60.3 263.07 70.61 253.28 65.83 243.02 52.31 245.94 47.98 247.95" fill="#fff" fill-rule="evenodd">
</polygon>
    <path d="M121.13,196.44c0-4.83-1.54-9.59-2.49-14.35-.15-.75-.29-1.5-.43-2.25-5.45-30-.88-58.78-2.31-68a9.51,9.51,0,0,0-2.58-4.15v0c-2.58-2.42-11.71-.8-15.7-1.29-1.27,4.29-1.38,5.57-6.11,5.57-4.52,0-4.39-1.09-6-5.66-2.59.55-10.53-.53-12.85.92a0,0,0,0,0,0,0,10.81,10.81,0,0,0-1.38,1c.89,1.33,3,5.13,3.67,11.92.76,8.16-3.2,19.72-3.64,21a.23.23,0,0,0-.05.12l-.07.13c-.66,1.68-1.43,3.44-2.22,5.26-.89,2-1.86,4.12-2.89,6.3-.1,3.66-.25,7.41-.5,11.24-.39,6-1,12.14-2,18.3-.1.54-.18,1.08-.26,1.64q-.48,3-.9,6a38.55,38.55,0,0,0-.72,5.33c0,13.9,59.45,10.66,59.45.88" fill="#fff" fill-rule="evenodd">
</path>
    <path d="M88.18,205.5l5.69,6.12s35.07-26.87,40.37-42.94c3.13-9.45-9.89-51.48-20.64-60.48-.91,1.31-3.3,5.33-4.24,12.76-1.12,8.74,2.32,21.35,2.71,22.78a.93.93,0,0,1,0,.13l0,.14c.6,1.84,1.28,3.76,2,5.76,1.64,4.54,3.58,9.48,5.84,14.87Z" fill="#fad291" fill-rule="evenodd">
</path>
    <polygon points="88.17 205.5 83.21 212.96 87.7 216.84 93.87 211.62 88.17 205.5" fill="#fad291" fill-rule="evenodd">
</polygon>
    <path d="M76.66,209.6c5.83-1.33,11.24.54,12.06,4.17a4.78,4.78,0,0,1-.45,3.19c-.52,1-5.29,1.59-7.35,1.66a14.16,14.16,0,0,0-3.41.53,11.77,11.77,0,0,0-5.77,3.37c-2.19-.76-3.76-2.13-4.17-4-.82-3.63,3.25-7.65,9.09-9" fill="#fad291" fill-rule="evenodd">
</path>
    <path d="M140.4,203.42c14.8-15.6,31.29-31.09,31.29-31.09l-11.75-.52a44.6,44.6,0,0,0-19.54,31.61" fill="#56bb46" fill-rule="evenodd">
</path>
</svg>
