<svg width="208px" height="192px" viewBox="0 0 208 192" version="1.1" xmlns="http://www.w3.org/2000/svg" xmlns:xlink="http://www.w3.org/1999/xlink" aria-hidden="true" focusable="false">
    <defs>
        <rect id="path-1" x="0" y="0" width="208" height="192">
</rect>
    </defs>
    <g id="Page-1" stroke="none" stroke-width="1" fill="none" fill-rule="evenodd">
        <g id="girl-with-tick">
            <g id="Mask" fill="#EFF0F4" fill-rule="nonzero">
                <rect id="path-1" x="0" y="0" width="208" height="192">
</rect>
            </g>
            <g id="Group-8-Clipped">
                <mask id="mask-2" fill="white">
                    <use xlink:href="#path-1">
</use>
                </mask>
                <g id="path-1">
</g>
                <g id="Group-8" mask="url(#mask-2)">
                    <g transform="translate(32.000000, 33.000000)" id="Group">
                        <g id="Group-2" transform="translate(38.000000, 0.000000)" fill-rule="nonzero">
                            <g id="Group-31" transform="translate(0.320513, 0.000000)">
                                <g id="Group-30" transform="translate(0.160617, 0.000000)">
                                    <path d="M31.0517873,64.2728 C31.0517873,64.2728 8.30622172,72.7019932 3.63097285,117.627475 C0.533563348,147.394409 0.774638009,159.00968 0.774638009,159.00968 L11.6287104,159.129943 C11.6287104,159.129943 32.8432805,117.482979 34.7650226,99.00463 C35.6733371,90.2711888 31.0517873,64.2728 31.0517873,64.2728" id="Fill-2" fill="#001CB0">
</path>
                                    <path d="M100.543215,117.627475 C103.640624,147.394409 103.39955,159.00968 103.39955,159.00968 L92.5454774,159.129943 C92.5454774,159.129943 71.3309072,117.482979 69.4091652,99.00463 C68.5008507,90.2711888 71.9798665,64.2728 71.9798665,64.2728 C71.9798665,64.2728 95.8679661,72.7019932 100.543215,117.627475 Z" id="Fill-9" fill="#001CB0">
</path>
                                    <path d="M49.2853722,60.2573855 C42.3513337,60.5958809 33.3892975,58.7992513 28.9197048,69.088794 C25.4921029,87.6440899 19.6263337,159.233628 19.6263337,159.233628 L85.893302,159.621506 C85.893302,159.621506 83.1729287,96.5949146 74.8769898,69.0771218 C72.5919219,61.4964404 67.4276686,63.7482879 64.749569,62.1231507 C60.3028269,60.6524465 55.1785622,59.9700684 49.2853722,60.2573855" id="Fill-14" fill="#001CB0">
</path>
                                    <path d="M39.8015407,83.5004571 C39.8015407,83.5004571 21.6261109,74.8158857 27.624414,61.8730286 C33.6227172,48.9290286 79.8953416,54.0718857 79.6097081,65.5004571 C79.3240747,76.9290286 57.0446629,85.0296 57.0446629,85.0296 L39.8015407,83.5004571 Z" id="Fill-16" fill="#001CB0">
</path>
                                    <path d="M38.6812862,37.5093714 C38.6812862,37.5093714 37.1217274,28.8579429 39.8900871,23.5093714 C43.371388,16.7825143 53.4154038,13.7665143 61.7890351,20.2328 C67.7085034,24.8042286 64.4351437,38.3665143 64.4351437,38.3665143 L46.9646572,30.9379429 L38.6812862,37.5093714 Z" id="Fill-18" fill="#001CB0">
</path>
                                    <polygon id="Fill-20" fill="#FAD291" points="58.108819 62.6276571 51.8682986 68.5625143 45.6277783 62.6276571 46.7257534 49.1819429 57.0108439 49.1819429">
</polygon>
                                    <path d="M63.4309706,34.4011429 C63.4309706,27.992 58.2552919,23.7954286 51.8685271,23.7954286 C45.4817624,23.7954286 40.3037986,27.992 40.3037986,34.4011429 C40.3037986,34.4011429 39.8010837,42.5805714 39.8010837,42.976 C39.8010837,49.0674286 47.2561176,56.7954286 51.8685271,56.7954286 C57.1927353,56.7954286 63.9348281,47.592 63.9348281,42.976 C63.9348281,42.5805714 63.4309706,34.4011429 63.4309706,34.4011429" id="Fill-22" fill="#FAD291">
</path>
                                    <path d="M40.8726663,35.9888 C40.8726663,35.9888 39.3953699,35.0345143 38.252836,36.5579429 C37.110302,38.0813714 37.8712296,43.7956571 40.7275645,43.7956571 C43.5838993,43.7956571 40.8726663,35.9888 40.8726663,35.9888" id="Fill-24" fill="#FAD291">
</path>
                                    <path d="M62.9523631,35.9888 C62.9523631,35.9888 64.4296595,35.0345143 65.5721934,36.5579429 C66.7147274,38.0813714 65.9537998,43.7956571 63.0974649,43.7956571 C60.2411301,43.7956571 62.9523631,35.9888 62.9523631,35.9888" id="Fill-26" fill="#FAD291">
</path>
                                    <path d="M60.9059706,10.4352 C61.0899186,15.9597714 57.7514344,19.5220571 52.7288552,19.6900571 C47.7028484,19.8569143 45.2932443,16.3254857 45.1104389,10.8009143 C44.9253484,5.27634286 47.4377805,1.04091429 52.4603597,0.874057143 C57.4863665,0.706057143 60.7231652,4.91177143 60.9059706,10.4352" id="Fill-28" fill="#001CB0">
</path>
                                </g>
                            </g>
                        </g>
                        <g id="Group-5" fill-rule="nonzero">
                            <path d="M40,20 C40,31.045 31.045,40 20,40 C8.955,40 0,31.045 0,20 C0,8.955 8.955,0 20,0 C31.045,0 40,8.955 40,20" id="Fill-1" fill="#2CAA18">
</path>
                            <path d="M28.385,14.11625 C27.89625,13.6275 27.105,13.6275 26.61625,14.11625 L17.50125,23.2325 L13.385,19.11625 C12.89625,18.6275 12.105,18.6275 11.61625,19.11625 C11.1275,19.605 11.1275,20.39625 11.61625,20.885 L16.61625,25.885 C16.86125,26.1275 17.18,26.25 17.50125,26.25 C17.82125,26.25 18.14125,26.1275 18.385,25.885 L28.385,15.885 C28.87375,15.39625 28.87375,14.605 28.385,14.11625" id="Fill-3" fill="#FFFFFF">
</path>
                        </g>
                    </g>
                </g>
            </g>
        </g>
    </g>
</svg>
