<svg width="208px" height="192px" viewBox="0 0 208 192" version="1.1" xmlns="http://www.w3.org/2000/svg" xmlns:xlink="http://www.w3.org/1999/xlink" aria-hidden="true" focusable="false">
    <defs>
        <rect id="path-1" x="0" y="0" width="208" height="192">
</rect>
        <polygon id="path-3" points="0.77792 0.22024 1.56 0.22024 1.56 1.45624 0.77792 1.45624">
</polygon>
        <polygon id="path-5" points="0 0.5584 21.7702446 0.5584 21.7702446 18.4271741 0 18.4271741">
</polygon>
    </defs>
    <g id="Designs" stroke="none" stroke-width="1" fill="none" fill-rule="evenodd">
        <g id="VPP-|-04-LG-|-00-Account" transform="translate(-632.000000, -112.000000)">
            <g id="Group" transform="translate(632.000000, 112.000000)">
                <g id="Group-5">
                    <g id="illus_new_cust">
                        <mask id="mask-2" fill="white">
                            <use xlink:href="#path-1">
</use>
                        </mask>
                        <use id="Mask" fill="#EFF0F4" xlink:href="#path-1">
</use>
                        <g id="Group-7" mask="url(#mask-2)">
                            <g transform="translate(32.000000, 32.000000)">
                                <g id="Group-59">
                                    <path d="M49.594794,118.118837 L94.0767315,98.2278481 L101.813664,110.864221 C101.813664,110.864221 68.6167418,136.905171 51.8685756,137.710919 C35.1233022,138.51811 14.106733,92.8821901 49.594794,118.118837" id="Fill-3" fill="#001CB0">
</path>
                                    <path d="M112.567628,85.0632911 C112.567628,85.0632911 114.510595,91.823986 109.033187,97.3473434 C105.42203,100.989069 102.908588,101.265823 102.908588,101.265823 L101.813664,94.1185515 L112.567628,85.0632911 Z" id="Fill-5" fill="#FAD291">
</path>
                                    <polygon id="Fill-7" fill="#FAD291" points="104.746039 98.6565523 102.303323 97.2151899 96.7733836 101.727907 100.697632 108.35443 106.853944 99.4945872">
</polygon>
                                    <g id="Group-15" transform="translate(95.000000, 79.000000)">
                                        <g id="Group-3" transform="translate(20.800000, 1.041600)">
                                            <mask id="mask-4" fill="white">
                                                <use xlink:href="#path-3">
</use>
                                            </mask>
                                            <g id="Clip-2">
</g>
                                            <path d="M0.96432,0.38264 C0.96832,0.36424 0.97072,0.34504 0.97072,0.32824 C0.97072,0.30504 0.96992,0.28664 0.96432,0.26824 C0.95872,0.25144 0.95072,0.23704 0.93952,0.22024 L1.52912,0.99464 C1.54112,1.00824 1.54672,1.02504 1.55232,1.04184 C1.55712,1.06104 1.55952,1.07944 1.55952,1.10104 C1.55952,1.11864 1.55632,1.13544 1.55312,1.15464 C1.54912,1.17384 1.54432,1.19464 1.53712,1.21064 C1.52912,1.23224 1.52192,1.25144 1.51232,1.27224 C1.50192,1.29384 1.48832,1.31464 1.47392,1.33784 C1.45712,1.36584 1.43792,1.39304 1.41392,1.42184 C1.40672,1.43224 1.39712,1.44584 1.38592,1.45624 L0.79632,0.68424 C0.80672,0.67224 0.81552,0.66104 0.82672,0.64904 C0.84752,0.61944 0.86752,0.59224 0.88432,0.56584 C0.89872,0.54344 0.91232,0.51944 0.92352,0.49944 C0.93232,0.47864 0.94112,0.45784 0.94752,0.43864 C0.95472,0.42024 0.96032,0.40104 0.96432,0.38264" id="Fill-1" fill="#313D52" mask="url(#mask-4)">
</path>
                                        </g>
                                        <path d="M0.03152,18.20472 L0.62112,18.97672 C0.64992,19.01672 0.69952,19.03752 0.76912,19.04152 L0.18032,18.26872 C0.10992,18.26632 0.05952,18.24392 0.03152,18.20472" id="Fill-4" fill="#313D52">
</path>
                                        <polygon id="Fill-6" fill="#2B2E31" points="0.18 18.2688 0.7696 19.0416 7.4112 19.44 6.8208 18.668">
</polygon>
                                        <polygon id="Fill-8" fill="#2B2E31" points="7.67256 18.19224 8.26376 18.96504 22.18616 2.49784 21.59656 1.72584">
</polygon>
                                        <g id="Group-12" transform="translate(0.000000, 0.241600)">
                                            <mask id="mask-6" fill="white">
                                                <use xlink:href="#path-5">
</use>
                                            </mask>
                                            <g id="Clip-11">
</g>
                                            <path d="M14.95304,0.5592 C14.71544,0.5432 14.33464,0.7592 14.10104,1.036 L0.17704,17.5008 C-0.06136,17.7808 -0.05816,18.0152 0.18024,18.0272 L6.82104,18.4264 C7.05464,18.4416 7.43544,18.2312 7.67224,17.9504 L21.59624,1.484 C21.82984,1.208 21.82744,0.9704 21.59384,0.956 L14.95304,0.5592 Z" id="Fill-10" fill="#001CB0" mask="url(#mask-6)">
</path>
                                        </g>
                                        <path d="M6.862,18.668 C6.8868,18.668 6.9148,18.6632 6.9428,18.6576 C6.966,18.6528 6.9916,18.6488 7.0156,18.64 C7.0396,18.632 7.0636,18.6232 7.0892,18.616 C7.1124,18.6064 7.1396,18.5944 7.1652,18.5808 C7.1916,18.5688 7.2204,18.5544 7.2476,18.54 C7.2796,18.52 7.3156,18.5008 7.3484,18.4784 C7.466,18.3976 7.582,18.2992 7.6724,18.192 L8.2636,18.9648 C8.1708,19.0736 8.0572,19.1712 7.9396,19.2504 C7.9052,19.2728 7.8716,19.2928 7.8364,19.3136 C7.81,19.3272 7.7812,19.3424 7.7556,19.3544 C7.7284,19.3672 7.7044,19.3768 7.6788,19.388 C7.6548,19.396 7.6308,19.404 7.6068,19.4128 C7.5812,19.42 7.5564,19.4256 7.5316,19.4296 C7.5028,19.436 7.478,19.44 7.4516,19.44 C7.438,19.4416 7.4236,19.4424 7.4108,19.44 L6.8212,18.668 C6.8348,18.668 6.8468,18.6672 6.862,18.668" id="Fill-13" fill="#2B2E31">
</path>
                                    </g>
                                    <path d="M98.7928966,89.9639748 C98.7374075,90.5153674 99.3675167,91.0359129 100.202319,91.1258837 C101.034655,91.2158545 101.75478,90.841833 101.810269,90.2891551 C101.865758,89.7390478 101.234416,89.217217 100.40208,89.1272462 C99.5672774,89.0372754 98.8471525,89.4125822 98.7928966,89.9639748" id="Fill-21" fill="#FAD291">
</path>
                                    <path d="M53.4099424,5.09998807 C60.4080305,5.46884163 68.3420417,13.1620731 67.4743925,21.4437139 C66.6038987,29.7268183 63.9028074,43.8076567 58.5717435,44.0198939 C56.2091776,44.113571 48.2822783,40.7602237 48.2822783,40.7602237 L47.2055399,50.6329114 L32.2577945,45.8978269 L38.7068456,33.3085035 C38.7068456,33.3085035 30.3432769,3.88364953 53.4099424,5.09998807" id="Fill-23" fill="#FAD291">
</path>
                                    <path d="M65.51609,14.6314987 C65.51609,14.6314987 58.2413504,13.9163349 55.6371634,17.2452015 C53.0329765,20.5740681 51.4959401,28.426596 49.9942866,20.6397318 C49.2625667,16.8326618 46.3809772,16.8797684 44.19714,19.0994886 C41.5122798,21.8316716 44.4858651,25.7986185 43.7881128,26.7835748 C43.0889452,27.768531 38.3773483,31.5284944 37.4941892,31.3886021 C36.6110302,31.2472823 32.2589242,14.7913757 38.9194154,6.94598514 C45.1751254,-0.418347089 65.977484,2.89196236 65.51609,14.6314987" id="Fill-25" fill="#001CB0">
</path>
                                    <path d="M65.6468113,15.1898734 C65.6468113,15.1898734 74.3653768,10.7650313 73.5319324,8.25991647 C73.0216603,6.72327384 67.772945,9.32882287 67.142192,7.83665823 C66.6319199,6.63862219 70.9082834,5.04745816 70.450456,3.82646575 C68.0550121,-2.56114674 45.4329499,0.00422862515 43.4613153,4.57254807 C41.4854284,9.14373707 65.6468113,15.1898734 65.6468113,15.1898734" id="Fill-27" fill="#001CB0">
</path>
                                    <path d="M51.41086,44.32506 L2.00141669,32 C2.00141669,32 -8.03301159,63.8578875 16.8347295,65.3468507 C41.7024706,66.8372955 51.41086,44.32506 51.41086,44.32506" id="Fill-45" fill="#001CB0">
</path>
                                    <path d="M19.9292638,64.0237724 C16.46283,88.374893 8.97622828,150.439695 4.03222432,159.671766 L77.6203181,160 C77.6203181,160 66.1191706,54.9415338 53.5808225,45.0639952 C49.0829343,43.1335984 43.8998042,42.2387028 37.9366187,42.6165802 C30.9218669,43.0603664 24.450137,50.5197828 19.9292638,64.0237724 Z" id="Fill-47" fill="#001CB0">
</path>
                                    <path d="M25.2547258,118.926074 L52.4189161,160 L41.4948683,158.498767 C41.4948683,158.498767 10.3372003,141.468746 6.60710708,124.78767 C2.87843756,108.10217 18.4110013,53.0081788 35.3288249,58.0456723 C44.5002984,60.7774474 43.5464196,78.6526621 25.2547258,118.926074 Z" id="Fill-49" fill="#001CB0">
</path>
                                    <path d="M51.320702,29.9981854 C51.5603012,30.5036658 51.3052992,31.0910309 50.7576438,31.309915 C50.2082769,31.528799 49.5699161,31.2973173 49.3320283,30.7902622 L46.4602602,24.6851295 C46.2223724,24.179649 46.4739516,23.5922839 47.0233184,23.3733999 C47.5743967,23.1545158 48.2127575,23.3875722 48.4489339,23.8930527 L51.320702,29.9981854 Z" id="Fill-51" fill="#FFFFFF">
</path>
                                </g>
                                <g id="Group-11" transform="translate(104.000000, 0.000000)">
                                    <path d="M40,20 C40,31.045 31.045,40 20,40 C8.955,40 0,31.045 0,20 C0,8.955 8.955,0 20,0 C31.045,0 40,8.955 40,20" id="Fill-1" fill="#2CAA18">
</path>
                                    <g id="Group-6" transform="translate(12.500000, 18.750000)">
                                        <line x1="15" y1="1.25" x2="0" y2="1.25" id="Fill-3" fill="#FFFFFF">
</line>
                                        <line x1="15" y1="1.25" x2="0" y2="1.25" id="Stroke-5" stroke="#FFFFFF" stroke-width="2" stroke-linecap="round" stroke-linejoin="round">
</line>
                                    </g>
                                    <g id="Group-10" transform="translate(18.750000, 12.500000)">
                                        <line x1="1.25" y1="0" x2="1.25" y2="15" id="Fill-7" fill="#FFFFFF">
</line>
                                        <line x1="1.25" y1="0" x2="1.25" y2="15" id="Stroke-9" stroke="#FFFFFF" stroke-width="2" stroke-linecap="round" stroke-linejoin="round">
</line>
                                    </g>
                                </g>
                            </g>
                        </g>
                    </g>
                </g>
            </g>
        </g>
    </g>
</svg>
